<?xml version="1.0" encoding="UTF-8"?>
<svg id="Layer_2" data-name="Layer 2" xmlns="http://www.w3.org/2000/svg" xmlns:xlink="http://www.w3.org/1999/xlink" viewBox="0 0 277.23 440.27">
  <defs>
    <style>
      .cls-1 {
        fill: #fff;
        opacity: .9;
      }

      .cls-2 {
        fill: url(#linear-gradient);
      }
    </style>
    <linearGradient id="linear-gradient" x1="138.61" y1="440.27" x2="138.61" y2="0" gradientUnits="userSpaceOnUse">
      <stop offset="0" stop-color="#4374ba"/>
      <stop offset="0" stop-color="#4274ba"/>
      <stop offset=".18" stop-color="#4089c3"/>
      <stop offset=".38" stop-color="#3f97c9"/>
      <stop offset=".62" stop-color="#3ea0cd"/>
      <stop offset="1" stop-color="#3ea3cf"/>
    </linearGradient>
  </defs>
  <g id="snow">
    <g>
      <path class="cls-2" d="M35.17,69.17c10.13-.22,19.02,4.71,24.26,11.12,5.3,6.49,6.31,13.8,6.71,17.27,2.11,18.02,3.29,61.44,2.58,118.71-.07,5.65,3.99,12.61,10.32,18.58,10.12,9.55,24.1,10.43,32.15,10.08,1.93-.08,3.46-1.64,3.5-3.57,1.85-72.94,3.71-145.88,5.56-218.82,0-.22.03-.44.08-.66.62-2.88,2.54-9.74,8.77-15.16C136.42.35,144.77.07,148.14,0c2.27-.04,12.81-.22,20.39,6.94,0,0,5.66,5.35,7.55,14.74,3.13,15.59,6.51,123.5,8.73,271.58.03,1.78,1.33,3.29,3.09,3.58,6.34,1.01,17.01,1.5,25.86-4.71,7.79-5.46,12.47-13.59,12.9-21.16,2.06-36.15,4.11-72.29,6.17-108.44.02-.32.08-.64.18-.95.66-1.97,2.37-6.06,6.56-9.33,5.41-4.22,11.28-4.19,12.9-4.13,1.58-.12,7.39-.37,12.9,3.61,4.38,3.17,6.23,7.31,6.93,9.28.12.35.19.71.2,1.07,1.58,41.34,3.15,82.67,4.73,124.01,0,.23,0,.46-.04.68-.69,4.5-2.93,14.7-11.3,23.92-11.84,13.03-27.31,14.6-30.92,14.87-15.39.83-30.77,1.66-46.16,2.5-1.93.1-3.45,1.69-3.47,3.63l-.97,104.92c-.02,2.01-1.65,3.63-3.67,3.63h-59.28c-2.03,0-3.67-1.64-3.67-3.67v-145.73c0-1.91-1.46-3.5-3.37-3.65l-52.75-4.36c-.09,0-.18-.01-.28-.01-4.58-.02-25.69-.66-42.7-17.55C-.48,246.31.64,221.75.94,217.49c0-.13.01-.26,0-.39-2.01-56.36-.7-99.54,2.74-118,.96-5.14,2.87-12.61,8.77-19.1,1.63-1.79,9.6-10.55,22.71-10.84Z"/>
      <path class="cls-1" d="M272.46,162.11c-.01-.37-.08-.73-.2-1.07-.7-1.96-2.55-6.11-6.93-9.28-5.51-3.98-11.32-3.73-12.9-3.61-1.63-.06-7.5-.09-12.9,4.13-2.75,2.14-4.43,4.64-5.44,6.66h9.9l11.03,8.52h17.66c-.07-1.78-.14-3.56-.2-5.34Z"/>
      <path class="cls-1" d="M154.63,16.19h19.78c-2.41-5.94-5.89-9.24-5.89-9.24C160.95-.22,150.41-.03,148.14,0c-3.37.06-11.73.34-19.03,6.71-6.23,5.43-8.16,12.29-8.77,15.16-.05.22-.07.43-.08.66-.03,1.15-.06,2.3-.09,3.46h22.07l12.39-9.81Z"/>
      <path class="cls-1" d="M59.44,80.26c-5.24-6.41-14.12-11.34-24.26-11.12-13.11.29-21.08,9.05-22.71,10.84-5.9,6.49-7.82,13.96-8.77,19.1-.12.62-.23,1.28-.34,1.95h21.19l12.97-10.45h27.28c-.95-3.21-2.54-6.88-5.36-10.32Z"/>
    </g>
  </g>
</svg>