<?xml version="1.0" encoding="UTF-8"?>
<svg id="Layer_2" data-name="Layer 2" xmlns="http://www.w3.org/2000/svg" xmlns:xlink="http://www.w3.org/1999/xlink" viewBox="0 0 277.19 440.27">
  <defs>
    <style>
      .cls-1 {
        fill: #fff;
        opacity: .9;
      }

      .cls-2 {
        fill: url(#linear-gradient);
      }
    </style>
    <linearGradient id="linear-gradient" x1="138.59" y1="0" x2="138.59" y2="440.27" gradientUnits="userSpaceOnUse">
      <stop offset="0" stop-color="#5bcaeb"/>
      <stop offset=".07" stop-color="#5bbae1"/>
      <stop offset=".22" stop-color="#5d9ccf"/>
      <stop offset=".39" stop-color="#5e84c1"/>
      <stop offset=".57" stop-color="#5f74b6"/>
      <stop offset=".76" stop-color="#5f6ab0"/>
      <stop offset="1" stop-color="#6067af"/>
    </linearGradient>
  </defs>
  <g id="snow">
    <g>
      <path class="cls-2" d="M35.17,69.17c10.13-.22,19.02,4.71,24.26,11.12,5.3,6.49,6.31,13.8,6.71,17.27,2.11,18.02,3.29,61.44,2.58,118.71-.07,5.65,3.99,12.61,10.32,18.58,4.7,4.43,10.22,7,15.6,8.44,10.14,2.72,20.13-4.92,20.39-15.42,1.73-67.98,3.46-135.95,5.19-203.93.04-1.42.25-2.82.65-4.19,1-3.4,3.23-8.68,8.23-13.03C136.42.35,144.77.07,148.14,0c2.27-.04,12.81-.22,20.39,6.94,0,0,5.66,5.35,7.55,14.74,3.04,15.14,6.31,117.38,8.54,258.93.17,10.66,10.37,18.45,20.63,15.53,2.89-.82,5.79-2.1,8.51-4.01,7.79-5.46,12.47-13.59,12.9-21.16,2.01-35.38,4.02-70.76,6.04-106.13.15-2.67.92-5.29,2.35-7.56,1.03-1.64,2.48-3.43,4.52-5.02,5.41-4.22,11.28-4.19,12.9-4.13,1.58-.12,7.39-.37,12.9,3.61,1.84,1.33,3.24,2.84,4.29,4.28,1.85,2.54,2.82,5.61,2.94,8.76,1.52,40,3.05,80.01,4.57,120.01.05,1.18-.03,2.36-.25,3.53-.94,5.02-3.51,14.1-11.04,22.39-11.84,13.03-27.31,14.6-30.92,14.87-11.43.62-22.85,1.24-34.28,1.85-8.61.47-15.38,7.54-15.46,16.17l-.74,80.47c-.08,8.97-7.37,16.19-16.34,16.19h-34.05c-9.03,0-16.34-7.32-16.34-16.34v-121.38c0-8.5-6.52-15.59-15-16.29l-40.65-3.36c-.38-.03-.76-.05-1.14-.05-5.3-.06-25.74-1.1-42.31-17.54C.16,246.94.59,223.38.91,217.98c.03-.5.03-1.01.02-1.51-1.98-56.06-.67-98.98,2.76-117.37.96-5.14,2.87-12.61,8.77-19.1,1.63-1.79,9.6-10.55,22.71-10.84Z"/>
      <path class="cls-1" d="M272.46,162.11c-.01-.37-.08-.73-.2-1.07-.7-1.96-2.55-6.11-6.93-9.28-5.51-3.98-11.32-3.73-12.9-3.61-1.63-.06-7.5-.09-12.9,4.13-2.75,2.14-4.43,4.64-5.44,6.66h9.9l11.03,8.52h17.66c-.07-1.78-.14-3.56-.2-5.34Z"/>
      <path class="cls-1" d="M154.63,16.19h19.78c-2.41-5.94-5.89-9.24-5.89-9.24C160.95-.22,150.41-.03,148.14,0c-3.37.06-11.73.34-19.03,6.71-6.23,5.43-8.16,12.29-8.77,15.16-.05.22-.07.43-.08.66-.03,1.15-.06,2.3-.09,3.46h22.07l12.39-9.81Z"/>
      <path class="cls-1" d="M59.44,80.26c-5.24-6.41-14.12-11.34-24.26-11.12-13.11.29-21.08,9.05-22.71,10.84-5.9,6.49-7.82,13.96-8.77,19.1-.12.62-.23,1.28-.34,1.95h21.19l12.97-10.45h27.28c-.95-3.21-2.54-6.88-5.36-10.32Z"/>
    </g>
  </g>
</svg>